M48
;DRILL file {KiCad 4.0.7-e2-6376~58~ubuntu16.04.1} date Mon Apr 16 12:31:56 2018
;FORMAT={-:-/ absolute / inch / decimal}
FMAT,2
INCH,TZ
T1C0.012
T2C0.040
T3C0.040
T4C0.046
%
G90
G05
M72
T1
X4.2375Y-2.6525
X4.47Y-2.195
X4.93Y-2.3225
X5.1575Y-2.3225
X5.17Y-2.8025
X5.185Y-2.53
X5.22Y-2.845
X5.22Y-2.935
X5.26Y-2.524
X5.275Y-2.18
X5.32Y-2.5971
X5.324Y-2.66
X5.3254Y-2.5205
X5.33Y-2.784
X5.3335Y-2.3915
X5.338Y-2.712
X5.3415Y-2.311
X5.39Y-2.795
X5.44Y-2.45
X5.44Y-2.605
X5.446Y-2.494
X5.49Y-2.46
X5.538Y-2.948
X5.54Y-2.27
X5.54Y-2.45
X5.57Y-2.48
X5.6Y-2.528
X5.65Y-2.89
X5.694Y-2.812
X5.698Y-2.776
X5.7Y-2.26
X5.73Y-2.96
X5.775Y-2.6
X5.776Y-2.81
X5.7955Y-2.5395
X5.814Y-2.78
X5.815Y-2.185
X6.02Y-2.782
X6.03Y-2.31
X6.06Y-2.835
X6.115Y-2.58
X6.1665Y-2.9495
X6.5345Y-2.83
T2
X6.1Y-2.65
X6.1Y-2.75
X6.2Y-2.65
X6.2Y-2.75
X6.3Y-2.65
X6.3Y-2.75
T3
X4.9061Y-2.9528
X5.0439Y-2.9528
X5.9422Y-2.16
X6.08Y-2.16
X6.6122Y-2.8
X6.6122Y-2.9378
T4
X4.4071Y-2.5975
X6.6Y-2.5975
T0
M30
