G04 #@! TF.FileFunction,Legend,Bot*
%FSLAX46Y46*%
G04 Gerber Fmt 4.6, Leading zero omitted, Abs format (unit mm)*
G04 Created by KiCad (PCBNEW 4.0.7-e2-6376~58~ubuntu16.04.1) date Mon Apr 16 12:45:48 2018*
%MOMM*%
%LPD*%
G01*
G04 APERTURE LIST*
%ADD10C,0.100000*%
%ADD11C,0.300000*%
%ADD12C,0.150000*%
G04 APERTURE END LIST*
D10*
D11*
X166169456Y-74811771D02*
X166169456Y-75811771D01*
X166526599Y-74240343D02*
X166883742Y-75311771D01*
X165955170Y-75311771D01*
X164312314Y-74240343D02*
X165598028Y-76168914D01*
X163026599Y-75811771D02*
X163883742Y-75811771D01*
X163455170Y-75811771D02*
X163455170Y-74311771D01*
X163598027Y-74526057D01*
X163740885Y-74668914D01*
X163883742Y-74740343D01*
X161740885Y-74311771D02*
X162026599Y-74311771D01*
X162169456Y-74383200D01*
X162240885Y-74454629D01*
X162383742Y-74668914D01*
X162455171Y-74954629D01*
X162455171Y-75526057D01*
X162383742Y-75668914D01*
X162312314Y-75740343D01*
X162169456Y-75811771D01*
X161883742Y-75811771D01*
X161740885Y-75740343D01*
X161669456Y-75668914D01*
X161598028Y-75526057D01*
X161598028Y-75168914D01*
X161669456Y-75026057D01*
X161740885Y-74954629D01*
X161883742Y-74883200D01*
X162169456Y-74883200D01*
X162312314Y-74954629D01*
X162383742Y-75026057D01*
X162455171Y-75168914D01*
X159883743Y-74240343D02*
X161169457Y-76168914D01*
X158598028Y-75811771D02*
X159455171Y-75811771D01*
X159026599Y-75811771D02*
X159026599Y-74311771D01*
X159169456Y-74526057D01*
X159312314Y-74668914D01*
X159455171Y-74740343D01*
X157740885Y-74954629D02*
X157883743Y-74883200D01*
X157955171Y-74811771D01*
X158026600Y-74668914D01*
X158026600Y-74597486D01*
X157955171Y-74454629D01*
X157883743Y-74383200D01*
X157740885Y-74311771D01*
X157455171Y-74311771D01*
X157312314Y-74383200D01*
X157240885Y-74454629D01*
X157169457Y-74597486D01*
X157169457Y-74668914D01*
X157240885Y-74811771D01*
X157312314Y-74883200D01*
X157455171Y-74954629D01*
X157740885Y-74954629D01*
X157883743Y-75026057D01*
X157955171Y-75097486D01*
X158026600Y-75240343D01*
X158026600Y-75526057D01*
X157955171Y-75668914D01*
X157883743Y-75740343D01*
X157740885Y-75811771D01*
X157455171Y-75811771D01*
X157312314Y-75740343D01*
X157240885Y-75668914D01*
X157169457Y-75526057D01*
X157169457Y-75240343D01*
X157240885Y-75097486D01*
X157312314Y-75026057D01*
X157455171Y-74954629D01*
X115045856Y-75760971D02*
X115545856Y-75046686D01*
X115902999Y-75760971D02*
X115902999Y-74260971D01*
X115331571Y-74260971D01*
X115188713Y-74332400D01*
X115117285Y-74403829D01*
X115045856Y-74546686D01*
X115045856Y-74760971D01*
X115117285Y-74903829D01*
X115188713Y-74975257D01*
X115331571Y-75046686D01*
X115902999Y-75046686D01*
X114402999Y-74975257D02*
X113902999Y-74975257D01*
X113688713Y-75760971D02*
X114402999Y-75760971D01*
X114402999Y-74260971D01*
X113688713Y-74260971D01*
X113260142Y-74260971D02*
X112760142Y-75760971D01*
X112260142Y-74260971D01*
X112117285Y-75903829D02*
X110974428Y-75903829D01*
X109831571Y-75760971D02*
X110688714Y-75760971D01*
X110260142Y-75760971D02*
X110260142Y-74260971D01*
X110402999Y-74475257D01*
X110545857Y-74618114D01*
X110688714Y-74689543D01*
X140837895Y-54409352D02*
X140361705Y-54409352D01*
X140123610Y-54528400D01*
X139885514Y-54766495D01*
X139766467Y-55242686D01*
X139766467Y-56076019D01*
X139885514Y-56552210D01*
X140123610Y-56790305D01*
X140361705Y-56909352D01*
X140837895Y-56909352D01*
X141075991Y-56790305D01*
X141314086Y-56552210D01*
X141433134Y-56076019D01*
X141433134Y-55242686D01*
X141314086Y-54766495D01*
X141075991Y-54528400D01*
X140837895Y-54409352D01*
X137266466Y-56909352D02*
X138099800Y-55718876D01*
X138695038Y-56909352D02*
X138695038Y-54409352D01*
X137742657Y-54409352D01*
X137504562Y-54528400D01*
X137385514Y-54647448D01*
X137266466Y-54885543D01*
X137266466Y-55242686D01*
X137385514Y-55480781D01*
X137504562Y-55599829D01*
X137742657Y-55718876D01*
X138695038Y-55718876D01*
X134766466Y-56671257D02*
X134885514Y-56790305D01*
X135242657Y-56909352D01*
X135480752Y-56909352D01*
X135837895Y-56790305D01*
X136075990Y-56552210D01*
X136195038Y-56314114D01*
X136314086Y-55837924D01*
X136314086Y-55480781D01*
X136195038Y-55004590D01*
X136075990Y-54766495D01*
X135837895Y-54528400D01*
X135480752Y-54409352D01*
X135242657Y-54409352D01*
X134885514Y-54528400D01*
X134766466Y-54647448D01*
X126698057Y-55160171D02*
X126340914Y-56660171D01*
X126055200Y-55588743D01*
X125769486Y-56660171D01*
X125412343Y-55160171D01*
X124840914Y-56660171D02*
X124840914Y-55660171D01*
X124840914Y-55160171D02*
X124912343Y-55231600D01*
X124840914Y-55303029D01*
X124769486Y-55231600D01*
X124840914Y-55160171D01*
X124840914Y-55303029D01*
X123912342Y-56660171D02*
X124055200Y-56588743D01*
X124126628Y-56445886D01*
X124126628Y-55160171D01*
X123126628Y-56660171D02*
X123269486Y-56588743D01*
X123340914Y-56445886D01*
X123340914Y-55160171D01*
X122555200Y-56660171D02*
X122555200Y-55660171D01*
X122555200Y-55160171D02*
X122626629Y-55231600D01*
X122555200Y-55303029D01*
X122483772Y-55231600D01*
X122555200Y-55160171D01*
X122555200Y-55303029D01*
X121198057Y-56660171D02*
X121198057Y-55874457D01*
X121269486Y-55731600D01*
X121412343Y-55660171D01*
X121698057Y-55660171D01*
X121840914Y-55731600D01*
X121198057Y-56588743D02*
X121340914Y-56660171D01*
X121698057Y-56660171D01*
X121840914Y-56588743D01*
X121912343Y-56445886D01*
X121912343Y-56303029D01*
X121840914Y-56160171D01*
X121698057Y-56088743D01*
X121340914Y-56088743D01*
X121198057Y-56017314D01*
X120483771Y-56660171D02*
X120483771Y-55660171D01*
X120483771Y-55803029D02*
X120412343Y-55731600D01*
X120269485Y-55660171D01*
X120055200Y-55660171D01*
X119912343Y-55731600D01*
X119840914Y-55874457D01*
X119840914Y-56660171D01*
X119840914Y-55874457D02*
X119769485Y-55731600D01*
X119626628Y-55660171D01*
X119412343Y-55660171D01*
X119269485Y-55731600D01*
X119198057Y-55874457D01*
X119198057Y-56660171D01*
X116840914Y-55874457D02*
X117340914Y-55874457D01*
X117340914Y-56660171D02*
X117340914Y-55160171D01*
X116626628Y-55160171D01*
X115412343Y-56660171D02*
X115412343Y-55874457D01*
X115483772Y-55731600D01*
X115626629Y-55660171D01*
X115912343Y-55660171D01*
X116055200Y-55731600D01*
X115412343Y-56588743D02*
X115555200Y-56660171D01*
X115912343Y-56660171D01*
X116055200Y-56588743D01*
X116126629Y-56445886D01*
X116126629Y-56303029D01*
X116055200Y-56160171D01*
X115912343Y-56088743D01*
X115555200Y-56088743D01*
X115412343Y-56017314D01*
X114698057Y-56660171D02*
X114698057Y-55660171D01*
X114698057Y-55160171D02*
X114769486Y-55231600D01*
X114698057Y-55303029D01*
X114626629Y-55231600D01*
X114698057Y-55160171D01*
X114698057Y-55303029D01*
X113983771Y-56660171D02*
X113983771Y-55660171D01*
X113983771Y-55945886D02*
X113912343Y-55803029D01*
X113840914Y-55731600D01*
X113698057Y-55660171D01*
X113555200Y-55660171D01*
X113055200Y-56660171D02*
X113055200Y-55660171D01*
X113055200Y-55803029D02*
X112983772Y-55731600D01*
X112840914Y-55660171D01*
X112626629Y-55660171D01*
X112483772Y-55731600D01*
X112412343Y-55874457D01*
X112412343Y-56660171D01*
X112412343Y-55874457D02*
X112340914Y-55731600D01*
X112198057Y-55660171D01*
X111983772Y-55660171D01*
X111840914Y-55731600D01*
X111769486Y-55874457D01*
X111769486Y-56660171D01*
X110412343Y-56660171D02*
X110412343Y-55874457D01*
X110483772Y-55731600D01*
X110626629Y-55660171D01*
X110912343Y-55660171D01*
X111055200Y-55731600D01*
X110412343Y-56588743D02*
X110555200Y-56660171D01*
X110912343Y-56660171D01*
X111055200Y-56588743D01*
X111126629Y-56445886D01*
X111126629Y-56303029D01*
X111055200Y-56160171D01*
X110912343Y-56088743D01*
X110555200Y-56088743D01*
X110412343Y-56017314D01*
X109698057Y-55660171D02*
X109698057Y-56660171D01*
X109698057Y-55803029D02*
X109626629Y-55731600D01*
X109483771Y-55660171D01*
X109269486Y-55660171D01*
X109126629Y-55731600D01*
X109055200Y-55874457D01*
X109055200Y-56660171D01*
X169353142Y-56288714D02*
X169424571Y-56360143D01*
X169638857Y-56431571D01*
X169781714Y-56431571D01*
X169995999Y-56360143D01*
X170138857Y-56217286D01*
X170210285Y-56074429D01*
X170281714Y-55788714D01*
X170281714Y-55574429D01*
X170210285Y-55288714D01*
X170138857Y-55145857D01*
X169995999Y-55003000D01*
X169781714Y-54931571D01*
X169638857Y-54931571D01*
X169424571Y-55003000D01*
X169353142Y-55074429D01*
X168495999Y-56431571D02*
X168638857Y-56360143D01*
X168710285Y-56288714D01*
X168781714Y-56145857D01*
X168781714Y-55717286D01*
X168710285Y-55574429D01*
X168638857Y-55503000D01*
X168495999Y-55431571D01*
X168281714Y-55431571D01*
X168138857Y-55503000D01*
X168067428Y-55574429D01*
X167995999Y-55717286D01*
X167995999Y-56145857D01*
X168067428Y-56288714D01*
X168138857Y-56360143D01*
X168281714Y-56431571D01*
X168495999Y-56431571D01*
X167353142Y-56431571D02*
X167353142Y-55431571D01*
X167353142Y-55717286D02*
X167281714Y-55574429D01*
X167210285Y-55503000D01*
X167067428Y-55431571D01*
X166924571Y-55431571D01*
X165853143Y-56360143D02*
X165996000Y-56431571D01*
X166281714Y-56431571D01*
X166424571Y-56360143D01*
X166496000Y-56217286D01*
X166496000Y-55645857D01*
X166424571Y-55503000D01*
X166281714Y-55431571D01*
X165996000Y-55431571D01*
X165853143Y-55503000D01*
X165781714Y-55645857D01*
X165781714Y-55788714D01*
X166496000Y-55931571D01*
X165281714Y-55431571D02*
X164924571Y-56431571D01*
X164567429Y-55431571D02*
X164924571Y-56431571D01*
X165067429Y-56788714D01*
X165138857Y-56860143D01*
X165281714Y-56931571D01*
X161996000Y-56288714D02*
X162067429Y-56360143D01*
X162281715Y-56431571D01*
X162424572Y-56431571D01*
X162638857Y-56360143D01*
X162781715Y-56217286D01*
X162853143Y-56074429D01*
X162924572Y-55788714D01*
X162924572Y-55574429D01*
X162853143Y-55288714D01*
X162781715Y-55145857D01*
X162638857Y-55003000D01*
X162424572Y-54931571D01*
X162281715Y-54931571D01*
X162067429Y-55003000D01*
X161996000Y-55074429D01*
X161138857Y-56431571D02*
X161281715Y-56360143D01*
X161353143Y-56288714D01*
X161424572Y-56145857D01*
X161424572Y-55717286D01*
X161353143Y-55574429D01*
X161281715Y-55503000D01*
X161138857Y-55431571D01*
X160924572Y-55431571D01*
X160781715Y-55503000D01*
X160710286Y-55574429D01*
X160638857Y-55717286D01*
X160638857Y-56145857D01*
X160710286Y-56288714D01*
X160781715Y-56360143D01*
X160924572Y-56431571D01*
X161138857Y-56431571D01*
X159353143Y-56360143D02*
X159496000Y-56431571D01*
X159781714Y-56431571D01*
X159924572Y-56360143D01*
X159996000Y-56288714D01*
X160067429Y-56145857D01*
X160067429Y-55717286D01*
X159996000Y-55574429D01*
X159924572Y-55503000D01*
X159781714Y-55431571D01*
X159496000Y-55431571D01*
X159353143Y-55503000D01*
X158710286Y-56431571D02*
X158710286Y-54931571D01*
X158067429Y-56431571D02*
X158067429Y-55645857D01*
X158138858Y-55503000D01*
X158281715Y-55431571D01*
X158496000Y-55431571D01*
X158638858Y-55503000D01*
X158710286Y-55574429D01*
X157353143Y-56431571D02*
X157353143Y-55431571D01*
X157353143Y-55717286D02*
X157281715Y-55574429D01*
X157210286Y-55503000D01*
X157067429Y-55431571D01*
X156924572Y-55431571D01*
X155781715Y-56431571D02*
X155781715Y-55645857D01*
X155853144Y-55503000D01*
X155996001Y-55431571D01*
X156281715Y-55431571D01*
X156424572Y-55503000D01*
X155781715Y-56360143D02*
X155924572Y-56431571D01*
X156281715Y-56431571D01*
X156424572Y-56360143D01*
X156496001Y-56217286D01*
X156496001Y-56074429D01*
X156424572Y-55931571D01*
X156281715Y-55860143D01*
X155924572Y-55860143D01*
X155781715Y-55788714D01*
X155067429Y-55431571D02*
X155067429Y-56431571D01*
X155067429Y-55574429D02*
X154996001Y-55503000D01*
X154853143Y-55431571D01*
X154638858Y-55431571D01*
X154496001Y-55503000D01*
X154424572Y-55645857D01*
X154424572Y-56431571D01*
X153710286Y-55860143D02*
X152567429Y-55860143D01*
X151138857Y-56431571D02*
X151853143Y-56431571D01*
X151853143Y-54931571D01*
X150067429Y-56360143D02*
X150210286Y-56431571D01*
X150496000Y-56431571D01*
X150638857Y-56360143D01*
X150710286Y-56217286D01*
X150710286Y-55645857D01*
X150638857Y-55503000D01*
X150496000Y-55431571D01*
X150210286Y-55431571D01*
X150067429Y-55503000D01*
X149996000Y-55645857D01*
X149996000Y-55788714D01*
X150710286Y-55931571D01*
X149353143Y-55431571D02*
X149353143Y-56931571D01*
X149353143Y-55503000D02*
X149210286Y-55431571D01*
X148924572Y-55431571D01*
X148781715Y-55503000D01*
X148710286Y-55574429D01*
X148638857Y-55717286D01*
X148638857Y-56145857D01*
X148710286Y-56288714D01*
X148781715Y-56360143D01*
X148924572Y-56431571D01*
X149210286Y-56431571D01*
X149353143Y-56360143D01*
X147996000Y-56431571D02*
X147996000Y-55431571D01*
X147996000Y-54931571D02*
X148067429Y-55003000D01*
X147996000Y-55074429D01*
X147924572Y-55003000D01*
X147996000Y-54931571D01*
X147996000Y-55074429D01*
X147424571Y-55431571D02*
X146638857Y-55431571D01*
X147424571Y-56431571D01*
X146638857Y-56431571D01*
D12*
X109940000Y-57976500D02*
X109940000Y-73976500D01*
X169640000Y-57976500D02*
X109940000Y-57976500D01*
X169640000Y-73976500D02*
X169640000Y-57976500D01*
X109940000Y-73976500D02*
X169640000Y-73976500D01*
X112471714Y-56507071D02*
X112328857Y-56554690D01*
X112281238Y-56602310D01*
X112233619Y-56697548D01*
X112233619Y-56840405D01*
X112281238Y-56935643D01*
X112328857Y-56983262D01*
X112424095Y-57030881D01*
X112805048Y-57030881D01*
X112805048Y-56030881D01*
X112471714Y-56030881D01*
X112376476Y-56078500D01*
X112328857Y-56126119D01*
X112281238Y-56221357D01*
X112281238Y-56316595D01*
X112328857Y-56411833D01*
X112376476Y-56459452D01*
X112471714Y-56507071D01*
X112805048Y-56507071D01*
X111947905Y-56030881D02*
X111376476Y-56030881D01*
X111662191Y-57030881D02*
X111662191Y-56030881D01*
X110519333Y-57030881D02*
X111090762Y-57030881D01*
X110805048Y-57030881D02*
X110805048Y-56030881D01*
X110900286Y-56173738D01*
X110995524Y-56268976D01*
X111090762Y-56316595D01*
M02*
